<svg xmlns="http://www.w3.org/2000/svg" xmlns:xlink="http://www.w3.org/1999/xlink" width="300" zoomAndPan="magnify" viewBox="0 0 224.87999 225" height="300" preserveAspectRatio="xMidYMid meet" version="1.0"><defs><clipPath id="03f02a5431"><path d="M 61.644531 12.230469 L 224.761719 12.230469 L 224.761719 213 L 61.644531 213 Z M 61.644531 12.230469 " clip-rule="nonzero"/></clipPath><clipPath id="6eae331f31"><path d="M 30 12.230469 L 143 12.230469 L 143 75 L 30 75 Z M 30 12.230469 " clip-rule="nonzero"/></clipPath></defs><g clip-path="url(#03f02a5431)"><path fill="#1d1b1b" d="M 219.675781 80.59375 C 218.511719 81.496094 197.980469 93.066406 197.980469 118.792969 C 197.980469 148.550781 224.105469 159.078125 224.890625 159.339844 C 224.769531 159.980469 220.738281 173.757812 211.113281 187.792969 C 202.53125 200.144531 193.566406 212.476562 179.933594 212.476562 C 166.296875 212.476562 162.789062 204.558594 147.046875 204.558594 C 131.707031 204.558594 126.253906 212.738281 113.78125 212.738281 C 101.308594 212.738281 92.605469 201.308594 82.597656 187.273438 C 71.007812 170.789062 61.644531 145.183594 61.644531 120.878906 C 61.644531 81.898438 86.988281 61.222656 111.933594 61.222656 C 125.191406 61.222656 136.238281 69.925781 144.558594 69.925781 C 152.480469 69.925781 164.832031 60.703125 179.910156 60.703125 C 185.628906 60.703125 206.160156 61.222656 219.675781 80.59375 Z M 172.753906 44.199219 C 178.988281 36.800781 183.402344 26.53125 183.402344 16.265625 C 183.402344 14.84375 183.28125 13.398438 183.019531 12.234375 C 172.875 12.617188 160.800781 18.992188 153.523438 27.433594 C 147.808594 33.933594 142.472656 44.199219 142.472656 54.605469 C 142.472656 56.171875 142.734375 57.734375 142.855469 58.234375 C 143.496094 58.355469 144.539062 58.496094 145.582031 58.496094 C 154.6875 58.496094 166.136719 52.398438 172.753906 44.199219 Z M 172.753906 44.199219 " fill-opacity="1" fill-rule="nonzero"/></g><path fill="#1d1b1b" d="M 76.59375 180.570312 C 76.59375 186.511719 76.59375 192.3125 76.59375 198.109375 C 76.632812 199.566406 76.554688 201.019531 76.351562 202.464844 C 75.269531 208.644531 70.113281 212.761719 64.007812 212.429688 C 63.296875 212.398438 62.59375 212.296875 61.902344 212.132812 C 61.207031 211.964844 60.535156 211.738281 59.886719 211.445312 C 59.238281 211.152344 58.621094 210.804688 58.035156 210.394531 C 57.449219 209.988281 56.910156 209.527344 56.410156 209.019531 C 55.914062 208.507812 55.46875 207.957031 55.074219 207.363281 C 54.679688 206.769531 54.34375 206.144531 54.066406 205.488281 C 53.789062 204.832031 53.578125 204.15625 53.429688 203.457031 C 53.277344 202.761719 53.195312 202.054688 53.179688 201.34375 C 52.910156 195.082031 52.988281 188.808594 53.066406 182.539062 C 53.066406 180.761719 52.53125 180.335938 50.824219 180.339844 C 47.65625 180.339844 44.441406 180.4375 41.375 179.839844 C 34.6875 178.535156 30.714844 173.398438 30.703125 166.554688 C 30.664062 138.445312 30.636719 110.332031 30.628906 82.214844 C 30.628906 81.636719 30.691406 81.058594 30.730469 80.355469 L 142.28125 80.355469 C 142.328125 80.941406 142.40625 81.449219 142.40625 81.960938 C 142.386719 110.140625 142.363281 138.316406 142.339844 166.496094 C 142.339844 172.585938 139.484375 176.960938 133.925781 179.121094 C 131.320312 180.136719 128.265625 180.210938 125.398438 180.308594 C 120.25 180.492188 120.25 180.367188 120.25 185.527344 C 120.25 190.546875 120.269531 195.5625 120.199219 200.574219 C 120.105469 207.339844 115.160156 212.40625 108.714844 212.453125 C 102.132812 212.492188 96.976562 207.449219 96.859375 200.683594 C 96.746094 194.550781 96.785156 188.40625 96.78125 182.269531 C 96.78125 181.207031 96.78125 180.351562 95.28125 180.367188 C 89.410156 180.433594 83.539062 180.402344 77.664062 180.414062 C 77.304688 180.445312 76.945312 180.5 76.59375 180.570312 Z M 76.59375 180.570312 " fill-opacity="1" fill-rule="nonzero"/><g clip-path="url(#6eae331f31)"><path fill="#1d1b1b" d="M 63.09375 27.691406 C 73.070312 23.847656 83.199219 22.820312 93.480469 23.972656 C 98.488281 24.535156 103.421875 25.878906 108.332031 27.089844 C 109.703125 27.429688 110.292969 27.25 111.007812 26.101562 C 113.445312 22.183594 116.015625 18.347656 118.492188 14.457031 C 119.347656 13.109375 120.472656 12.257812 121.90625 13.265625 C 123.339844 14.277344 122.671875 15.527344 121.871094 16.734375 C 119.1875 20.804688 116.558594 24.910156 113.84375 29.097656 C 132.292969 38.4375 142.355469 53.085938 142.613281 74.269531 L 30.851562 74.269531 C 29.328125 62.25 35.550781 40.113281 59.273438 29.042969 L 52.417969 18.21875 C 51.921875 17.425781 51.441406 16.632812 50.941406 15.871094 C 50.246094 14.78125 50.433594 13.769531 51.476562 13.128906 C 52.664062 12.386719 53.738281 12.773438 54.492188 13.992188 C 56.4375 17.132812 58.390625 20.269531 60.347656 23.394531 C 61.21875 24.789062 62.117188 26.164062 63.09375 27.691406 Z M 67.394531 52.15625 C 67.402344 51.710938 67.367188 51.265625 67.289062 50.828125 C 67.210938 50.386719 67.085938 49.960938 66.921875 49.546875 C 66.757812 49.132812 66.554688 48.738281 66.3125 48.363281 C 66.070312 47.988281 65.789062 47.644531 65.476562 47.324219 C 65.167969 47.003906 64.824219 46.722656 64.457031 46.46875 C 64.085938 46.21875 63.695312 46.007812 63.285156 45.835938 C 62.875 45.664062 62.449219 45.53125 62.011719 45.445312 C 61.574219 45.355469 61.132812 45.3125 60.6875 45.3125 C 57.222656 45.351562 54.148438 48.441406 54.09375 51.933594 C 54.078125 52.375 54.105469 52.8125 54.179688 53.25 C 54.25 53.6875 54.363281 54.109375 54.523438 54.523438 C 54.679688 54.9375 54.875 55.328125 55.109375 55.703125 C 55.34375 56.078125 55.613281 56.425781 55.917969 56.746094 C 56.222656 57.066406 56.554688 57.351562 56.917969 57.605469 C 57.277344 57.859375 57.660156 58.078125 58.066406 58.253906 C 58.472656 58.429688 58.890625 58.566406 59.320312 58.660156 C 59.753906 58.757812 60.1875 58.808594 60.628906 58.8125 C 61.070312 58.820312 61.511719 58.785156 61.945312 58.707031 C 62.378906 58.625 62.800781 58.503906 63.210938 58.339844 C 63.621094 58.175781 64.011719 57.972656 64.382812 57.730469 C 64.75 57.488281 65.09375 57.214844 65.410156 56.902344 C 65.722656 56.59375 66.003906 56.253906 66.253906 55.890625 C 66.5 55.523438 66.707031 55.136719 66.878906 54.730469 C 67.050781 54.320312 67.179688 53.902344 67.265625 53.46875 C 67.351562 53.035156 67.394531 52.597656 67.394531 52.15625 Z M 118.292969 52.070312 C 118.261719 48.320312 115.285156 45.289062 111.6875 45.335938 C 108.230469 45.382812 105.15625 48.503906 105.148438 52.007812 C 105.148438 55.605469 108.121094 58.703125 111.597656 58.742188 C 112.039062 58.738281 112.472656 58.695312 112.902344 58.609375 C 113.332031 58.523438 113.75 58.398438 114.152344 58.230469 C 114.558594 58.0625 114.941406 57.855469 115.308594 57.613281 C 115.671875 57.367188 116.007812 57.09375 116.320312 56.78125 C 116.628906 56.472656 116.90625 56.136719 117.152344 55.773438 C 117.394531 55.410156 117.601562 55.023438 117.773438 54.621094 C 117.941406 54.214844 118.070312 53.800781 118.15625 53.371094 C 118.242188 52.941406 118.289062 52.507812 118.292969 52.070312 Z M 118.292969 52.070312 " fill-opacity="1" fill-rule="nonzero"/></g><path fill="#1d1b1b" d="M 148.597656 118.664062 C 148.597656 109.496094 148.78125 100.324219 148.535156 91.167969 C 148.359375 84.8125 153.753906 78.890625 160.621094 78.914062 C 167.265625 78.914062 172.894531 84.320312 172.894531 91.074219 C 172.941406 109.667969 172.921875 128.265625 172.835938 146.867188 C 172.808594 153.40625 167.125 158.800781 160.511719 158.824219 C 154.132812 158.847656 148.710938 153.507812 148.65625 146.945312 C 148.582031 137.515625 148.636719 128.085938 148.636719 118.652344 Z M 148.597656 118.664062 " fill-opacity="1" fill-rule="nonzero"/><path fill="#1d1b1b" d="M 0.117188 118.777344 C 0.117188 109.410156 0.015625 100.039062 0.148438 90.664062 C 0.273438 81.710938 9.949219 76.046875 17.789062 80.269531 C 21.75 82.398438 24.0625 85.8125 24.074219 90.339844 C 24.136719 109.34375 24.117188 128.34375 24.011719 147.335938 C 23.972656 153.601562 18.375 158.816406 12.160156 158.816406 C 5.824219 158.816406 0.339844 153.808594 0.226562 147.453125 C 0.0507812 137.890625 0.183594 128.324219 0.183594 118.757812 Z M 0.117188 118.777344 " fill-opacity="1" fill-rule="nonzero"/></svg>