<svg xmlns="http://www.w3.org/2000/svg" xmlns:xlink="http://www.w3.org/1999/xlink" width="1920" zoomAndPan="magnify" viewBox="0 0 1440 809.999993" height="1080" preserveAspectRatio="xMidYMid meet" version="1.0"><path fill="#000000" d="M 1080.617188 762.253906 L 911.03125 538.058594 C 915.363281 533.347656 919.542969 528.503906 923.570312 523.527344 C 927.597656 518.550781 931.460938 513.453125 935.164062 508.230469 C 938.867188 503.007812 942.402344 497.675781 945.765625 492.230469 C 949.132812 486.78125 952.320312 481.234375 955.332031 475.585938 C 958.34375 469.9375 961.175781 464.203125 963.824219 458.375 C 966.46875 452.546875 968.929688 446.640625 971.203125 440.65625 C 973.476562 434.671875 975.558594 428.621094 977.449219 422.507812 C 979.339844 416.390625 981.03125 410.222656 982.53125 404 C 984.027344 397.773438 985.324219 391.511719 986.425781 385.203125 C 987.527344 378.898438 988.425781 372.566406 989.125 366.203125 C 989.820312 359.839844 990.316406 353.460938 990.609375 347.066406 C 990.902344 340.671875 990.992188 334.273438 990.882812 327.875 C 990.769531 321.476562 990.453125 315.085938 989.933594 308.707031 C 989.417969 302.324219 988.695312 295.96875 987.773438 289.632812 C 986.851562 283.300781 985.730469 277 984.410156 270.738281 C 983.085938 264.476562 981.566406 258.261719 979.851562 252.09375 C 978.136719 245.925781 976.226562 239.820312 974.121094 233.777344 C 972.019531 227.730469 969.726562 221.757812 967.242188 215.855469 C 964.761719 209.957031 962.09375 204.140625 959.242188 198.410156 C 956.390625 192.679688 953.359375 187.046875 950.148438 181.507812 C 946.9375 175.96875 943.558594 170.539062 940.003906 165.214844 C 936.449219 159.890625 932.730469 154.683594 928.84375 149.59375 C 924.960938 144.507812 920.917969 139.546875 916.71875 134.714844 C 912.519531 129.882812 908.167969 125.191406 903.671875 120.636719 C 899.175781 116.078125 894.539062 111.671875 889.761719 107.410156 C 884.984375 103.148438 880.074219 99.042969 875.039062 95.09375 C 870 91.140625 864.84375 87.355469 859.5625 83.734375 C 854.285156 80.109375 848.898438 76.65625 843.402344 73.375 C 837.902344 70.097656 832.308594 66.992188 826.613281 64.066406 C 820.917969 61.140625 815.136719 58.398438 809.269531 55.839844 C 803.402344 53.277344 797.457031 50.910156 791.4375 48.726562 C 785.417969 46.542969 779.339844 44.554688 773.191406 42.757812 C 767.046875 40.960938 760.851562 39.363281 754.605469 37.960938 C 748.359375 36.554688 742.074219 35.351562 735.75 34.347656 C 729.429688 33.34375 723.078125 32.539062 716.707031 31.9375 C 710.332031 31.335938 703.945312 30.9375 697.546875 30.742188 C 691.144531 30.542969 684.746094 30.550781 678.347656 30.761719 C 671.949219 30.96875 665.5625 31.382812 659.191406 31.996094 C 652.816406 32.609375 646.472656 33.425781 640.148438 34.445312 C 633.828125 35.460938 627.546875 36.679688 621.304688 38.09375 C 615.058594 39.507812 608.867188 41.121094 602.726562 42.929688 C 596.582031 44.738281 590.503906 46.742188 584.492188 48.933594 C 578.476562 51.128906 572.539062 53.511719 566.675781 56.082031 C 560.8125 58.65625 555.035156 61.410156 549.347656 64.347656 C 543.660156 67.285156 538.070312 70.398438 532.578125 73.691406 C 527.089844 76.984375 521.707031 80.445312 516.4375 84.078125 C 511.167969 87.710938 506.015625 91.511719 500.984375 95.46875 C 495.957031 99.429688 491.058594 103.546875 486.289062 107.816406 C 481.519531 112.089844 476.890625 116.507812 472.402344 121.070312 C 467.914062 125.636719 463.574219 130.339844 459.386719 135.179688 C 455.195312 140.019531 451.164062 144.984375 447.289062 150.082031 C 443.414062 155.175781 439.707031 160.390625 436.164062 165.722656 C 432.621094 171.054688 429.25 176.492188 426.050781 182.035156 C 422.851562 187.582031 419.832031 193.222656 416.992188 198.957031 C 414.152344 204.695312 411.496094 210.515625 409.027344 216.421875 C 406.554688 222.324219 404.273438 228.304688 402.183594 234.351562 C 400.089844 240.402344 398.191406 246.511719 396.488281 252.683594 C 394.785156 258.851562 393.28125 265.070312 391.96875 271.335938 C 390.660156 277.601562 389.550781 283.902344 388.644531 290.238281 C 387.734375 296.574219 387.027344 302.933594 386.519531 309.316406 C 386.015625 315.695312 385.714844 322.085938 385.613281 328.488281 C 385.511719 334.886719 385.617188 341.285156 385.921875 347.675781 C 386.230469 354.070312 386.738281 360.449219 387.449219 366.808594 C 388.160156 373.171875 389.070312 379.503906 390.183594 385.808594 C 391.296875 392.109375 392.609375 398.371094 394.117188 404.59375 C 395.628906 410.8125 397.335938 416.980469 399.238281 423.089844 C 401.140625 429.203125 403.230469 435.25 405.519531 441.226562 C 407.804688 447.207031 410.277344 453.109375 412.9375 458.929688 C 415.597656 464.753906 418.4375 470.484375 421.460938 476.128906 C 424.484375 481.769531 427.683594 487.308594 431.058594 492.75 C 434.4375 498.1875 437.980469 503.515625 441.695312 508.730469 C 445.40625 513.941406 449.28125 519.035156 453.320312 524.003906 C 457.355469 528.96875 461.546875 533.804688 465.890625 538.507812 C 470.234375 543.210938 474.722656 547.769531 479.355469 552.1875 C 483.988281 556.605469 488.757812 560.871094 493.660156 564.988281 C 498.5625 569.101562 503.59375 573.058594 508.75 576.855469 C 513.902344 580.652344 519.171875 584.28125 524.558594 587.742188 C 529.945312 591.203125 535.433594 594.492188 541.027344 597.605469 C 546.621094 600.71875 552.308594 603.652344 558.089844 606.402344 C 563.867188 609.15625 569.730469 611.722656 575.671875 614.105469 C 581.617188 616.484375 587.628906 618.675781 593.710938 620.675781 C 599.792969 622.675781 605.929688 624.480469 612.128906 626.089844 C 618.324219 627.699219 624.566406 629.109375 630.851562 630.324219 C 637.136719 631.539062 643.457031 632.550781 649.808594 633.363281 C 656.15625 634.175781 662.527344 634.789062 668.917969 635.199219 C 675.304688 635.605469 681.703125 635.8125 688.105469 635.816406 C 694.507812 635.820312 700.902344 635.617188 707.292969 635.214844 C 713.683594 634.8125 720.050781 634.207031 726.402344 633.402344 C 732.753906 632.59375 739.074219 631.585938 745.363281 630.378906 C 751.648438 629.171875 757.890625 627.765625 764.089844 626.164062 C 770.289062 624.558594 776.429688 622.761719 782.511719 620.765625 C 788.597656 618.773438 794.613281 616.589844 800.558594 614.214844 C 806.503906 611.839844 812.367188 609.277344 818.148438 606.53125 C 823.933594 603.785156 829.621094 600.855469 835.21875 597.75 C 840.816406 594.640625 846.308594 591.359375 851.695312 587.902344 C 857.085938 584.445312 862.359375 580.820312 867.519531 577.03125 L 1034.191406 797.417969 C 1034.769531 798.183594 1035.382812 798.917969 1036.035156 799.621094 C 1036.683594 800.328125 1037.367188 801 1038.082031 801.636719 C 1038.800781 802.273438 1039.542969 802.875 1040.320312 803.441406 C 1041.09375 804.007812 1041.894531 804.53125 1042.722656 805.015625 C 1043.546875 805.503906 1044.398438 805.949219 1045.269531 806.351562 C 1046.136719 806.753906 1047.027344 807.113281 1047.929688 807.429688 C 1048.835938 807.742188 1049.757812 808.015625 1050.6875 808.238281 C 1051.621094 808.464844 1052.5625 808.644531 1053.511719 808.777344 C 1054.460938 808.910156 1055.414062 808.996094 1056.375 809.035156 C 1057.332031 809.074219 1058.289062 809.066406 1059.246094 809.011719 C 1060.203125 808.953125 1061.15625 808.851562 1062.105469 808.703125 C 1063.050781 808.554688 1063.988281 808.363281 1064.917969 808.121094 C 1065.847656 807.878906 1066.761719 807.59375 1067.660156 807.265625 C 1068.5625 806.933594 1069.441406 806.558594 1070.304688 806.140625 C 1071.167969 805.726562 1072.011719 805.265625 1072.828125 804.765625 C 1073.648438 804.265625 1074.441406 803.730469 1075.207031 803.152344 C 1075.972656 802.574219 1076.707031 801.960938 1077.410156 801.308594 C 1078.117188 800.660156 1078.789062 799.976562 1079.425781 799.261719 C 1080.066406 798.546875 1080.667969 797.800781 1081.230469 797.027344 C 1081.796875 796.25 1082.320312 795.449219 1082.808594 794.625 C 1083.292969 793.796875 1083.738281 792.949219 1084.140625 792.078125 C 1084.542969 791.207031 1084.902344 790.320312 1085.21875 789.414062 C 1085.535156 788.511719 1085.804688 787.589844 1086.03125 786.660156 C 1086.253906 785.726562 1086.433594 784.785156 1086.566406 783.835938 C 1086.699219 782.886719 1086.785156 781.933594 1086.824219 780.976562 C 1086.863281 780.019531 1086.855469 779.058594 1086.800781 778.101562 C 1086.746094 777.144531 1086.644531 776.191406 1086.496094 775.246094 C 1086.347656 774.296875 1086.152344 773.359375 1085.910156 772.433594 C 1085.671875 771.503906 1085.386719 770.589844 1085.054688 769.691406 C 1084.722656 768.789062 1084.351562 767.910156 1083.933594 767.046875 C 1083.515625 766.183594 1083.058594 765.339844 1082.558594 764.523438 C 1082.058594 763.703125 1081.519531 762.914062 1080.941406 762.148438 Z M 434.632812 333.167969 C 434.628906 329.015625 434.730469 324.867188 434.933594 320.722656 C 435.136719 316.574219 435.441406 312.4375 435.847656 308.304688 C 436.253906 304.171875 436.761719 300.054688 437.371094 295.949219 C 437.980469 291.839844 438.691406 287.753906 439.5 283.679688 C 440.308594 279.609375 441.21875 275.558594 442.226562 271.53125 C 443.234375 267.507812 444.339844 263.507812 445.546875 259.535156 C 446.75 255.5625 448.050781 251.621094 449.449219 247.710938 C 450.847656 243.800781 452.34375 239.929688 453.929688 236.09375 C 455.519531 232.257812 457.203125 228.464844 458.976562 224.710938 C 460.75 220.960938 462.617188 217.253906 464.574219 213.589844 C 466.53125 209.929688 468.578125 206.320312 470.710938 202.757812 C 472.84375 199.195312 475.066406 195.691406 477.371094 192.238281 C 479.679688 188.785156 482.066406 185.394531 484.542969 182.058594 C 487.015625 178.722656 489.566406 175.453125 492.203125 172.242188 C 494.835938 169.035156 497.546875 165.890625 500.335938 162.816406 C 503.121094 159.738281 505.984375 156.734375 508.921875 153.796875 C 511.855469 150.859375 514.863281 148 517.9375 145.210938 C 521.015625 142.421875 524.15625 139.710938 527.367188 137.078125 C 530.578125 134.445312 533.847656 131.890625 537.183594 129.417969 C 540.519531 126.945312 543.914062 124.554688 547.363281 122.246094 C 550.816406 119.941406 554.324219 117.722656 557.886719 115.585938 C 561.445312 113.453125 565.058594 111.40625 568.71875 109.449219 C 572.382812 107.492188 576.089844 105.625 579.84375 103.851562 C 583.59375 102.074219 587.390625 100.394531 591.226562 98.804688 C 595.0625 97.214844 598.933594 95.722656 602.84375 94.324219 C 606.753906 92.925781 610.695312 91.621094 614.667969 90.417969 C 618.640625 89.210938 622.640625 88.105469 626.671875 87.09375 C 630.699219 86.085938 634.746094 85.175781 638.820312 84.367188 C 642.894531 83.554688 646.984375 82.847656 651.089844 82.238281 C 655.195312 81.628906 659.316406 81.121094 663.449219 80.710938 C 667.582031 80.304688 671.722656 80 675.867188 79.796875 C 680.015625 79.59375 684.164062 79.488281 688.316406 79.488281 C 692.46875 79.488281 696.617188 79.589844 700.765625 79.796875 C 704.914062 80 709.054688 80.304688 713.183594 80.710938 C 717.316406 81.117188 721.4375 81.625 725.542969 82.234375 C 729.652344 82.84375 733.742188 83.550781 737.8125 84.363281 C 741.886719 85.171875 745.9375 86.082031 749.964844 87.089844 C 753.992188 88.097656 757.992188 89.203125 761.964844 90.410156 C 765.941406 91.613281 769.882812 92.917969 773.792969 94.316406 C 777.699219 95.714844 781.574219 97.207031 785.410156 98.796875 C 789.246094 100.382812 793.039062 102.066406 796.792969 103.839844 C 800.546875 105.613281 804.253906 107.480469 807.917969 109.4375 C 811.578125 111.394531 815.191406 113.441406 818.753906 115.574219 C 822.3125 117.707031 825.820312 119.929688 829.273438 122.234375 C 832.726562 124.539062 836.121094 126.929688 839.457031 129.402344 C 842.789062 131.875 846.0625 134.429688 849.273438 137.0625 C 852.480469 139.695312 855.625 142.40625 858.703125 145.195312 C 861.777344 147.984375 864.785156 150.84375 867.722656 153.78125 C 870.65625 156.714844 873.519531 159.722656 876.308594 162.796875 C 879.097656 165.871094 881.808594 169.015625 884.441406 172.222656 C 887.074219 175.433594 889.628906 178.703125 892.101562 182.039062 C 894.578125 185.375 896.964844 188.765625 899.273438 192.21875 C 901.578125 195.671875 903.800781 199.175781 905.933594 202.738281 C 908.070312 206.296875 910.117188 209.910156 912.074219 213.570312 C 914.03125 217.230469 915.898438 220.9375 917.671875 224.691406 C 919.445312 228.445312 921.128906 232.238281 922.71875 236.074219 C 924.308594 239.90625 925.800781 243.78125 927.199219 247.6875 C 928.597656 251.597656 929.898438 255.539062 931.105469 259.511719 C 932.3125 263.484375 933.417969 267.484375 934.425781 271.511719 C 935.433594 275.535156 936.34375 279.585938 937.15625 283.65625 C 937.964844 287.730469 938.671875 291.816406 939.28125 295.925781 C 939.890625 300.03125 940.398438 304.148438 940.808594 308.28125 C 941.214844 312.414062 941.519531 316.550781 941.722656 320.699219 C 941.925781 324.84375 942.027344 328.992188 942.027344 333.144531 C 942.027344 337.296875 941.925781 341.445312 941.722656 345.589844 C 941.515625 349.738281 941.210938 353.875 940.804688 358.007812 C 940.398438 362.136719 939.890625 366.257812 939.28125 370.363281 C 938.671875 374.46875 937.960938 378.558594 937.148438 382.628906 C 936.339844 386.699219 935.429688 390.75 934.421875 394.777344 C 933.410156 398.804688 932.304688 402.804688 931.097656 406.777344 C 929.894531 410.75 928.589844 414.6875 927.191406 418.597656 C 925.792969 422.507812 924.296875 426.378906 922.707031 430.214844 C 921.121094 434.046875 919.4375 437.84375 917.660156 441.59375 C 915.886719 445.347656 914.019531 449.054688 912.0625 452.714844 C 910.105469 456.375 908.058594 459.988281 905.921875 463.546875 C 903.789062 467.109375 901.566406 470.613281 899.261719 474.066406 C 896.953125 477.515625 894.5625 480.910156 892.089844 484.242188 C 889.613281 487.578125 887.0625 490.847656 884.425781 494.058594 C 881.792969 497.265625 879.082031 500.410156 876.292969 503.484375 C 873.503906 506.558594 870.640625 509.566406 867.703125 512.5 C 864.769531 515.4375 861.761719 518.296875 858.683594 521.085938 C 855.605469 523.871094 852.464844 526.582031 849.253906 529.214844 C 846.042969 531.847656 842.769531 534.402344 839.4375 536.875 C 836.101562 539.347656 832.707031 541.734375 829.253906 544.042969 C 825.800781 546.347656 822.292969 548.566406 818.730469 550.703125 C 815.171875 552.835938 811.558594 554.878906 807.898438 556.835938 C 804.234375 558.792969 800.527344 560.660156 796.773438 562.433594 C 793.019531 564.207031 789.222656 565.890625 785.386719 567.476562 C 781.550781 569.066406 777.679688 570.558594 773.769531 571.957031 C 769.859375 573.355469 765.917969 574.65625 761.945312 575.859375 C 757.96875 577.066406 753.96875 578.171875 749.941406 579.179688 C 745.914062 580.1875 741.863281 581.097656 737.789062 581.90625 C 733.71875 582.714844 729.628906 583.425781 725.519531 584.035156 C 721.414062 584.640625 717.292969 585.148438 713.160156 585.554688 C 709.027344 585.960938 704.890625 586.265625 700.742188 586.46875 C 696.59375 586.671875 692.445312 586.773438 688.292969 586.773438 C 684.140625 586.773438 679.992188 586.671875 675.847656 586.464844 C 671.699219 586.261719 667.5625 585.957031 663.429688 585.550781 C 659.300781 585.140625 655.179688 584.632812 651.074219 584.023438 C 646.96875 583.414062 642.878906 582.703125 638.808594 581.894531 C 634.738281 581.085938 630.6875 580.175781 626.660156 579.167969 C 622.632812 578.15625 618.636719 577.050781 614.664062 575.84375 C 610.691406 574.640625 606.75 573.339844 602.839844 571.941406 C 598.933594 570.542969 595.0625 569.046875 591.226562 567.460938 C 587.390625 565.871094 583.597656 564.1875 579.84375 562.414062 C 576.09375 560.640625 572.386719 558.773438 568.726562 556.816406 C 565.0625 554.859375 561.453125 552.816406 557.890625 550.683594 C 554.332031 548.546875 550.824219 546.328125 547.375 544.023438 C 543.921875 541.714844 540.53125 539.328125 537.195312 536.855469 C 533.863281 534.382812 530.589844 531.828125 527.382812 529.195312 C 524.171875 526.5625 521.03125 523.855469 517.953125 521.066406 C 514.878906 518.277344 511.871094 515.417969 508.9375 512.484375 C 506.003906 509.550781 503.140625 506.542969 500.351562 503.46875 C 497.566406 500.394531 494.855469 497.253906 492.21875 494.042969 C 489.585938 490.835938 487.035156 487.566406 484.5625 484.230469 C 482.085938 480.898438 479.699219 477.503906 477.390625 474.054688 C 475.085938 470.605469 472.863281 467.097656 470.730469 463.539062 C 468.597656 459.980469 466.550781 456.371094 464.59375 452.710938 C 462.636719 449.050781 460.769531 445.34375 458.996094 441.589844 C 457.21875 437.839844 455.539062 434.046875 453.949219 430.210938 C 452.359375 426.378906 450.867188 422.507812 449.46875 418.601562 C 448.070312 414.691406 446.765625 410.753906 445.5625 406.78125 C 444.355469 402.808594 443.25 398.8125 442.238281 394.785156 C 441.230469 390.761719 440.320312 386.710938 439.511719 382.640625 C 438.699219 378.570312 437.992188 374.484375 437.382812 370.378906 C 436.769531 366.273438 436.261719 362.15625 435.855469 358.023438 C 435.449219 353.894531 435.140625 349.757812 434.9375 345.609375 C 434.734375 341.464844 434.632812 337.316406 434.632812 333.167969 Z M 434.632812 333.167969 " fill-opacity="1" fill-rule="nonzero"/></svg>